<?xml version="1.0" encoding="utf-8"?>
<!-- Generator: Adobe Illustrator 16.0.0, SVG Export Plug-In . SVG Version: 6.00 Build 0)  -->
<!DOCTYPE svg PUBLIC "-//W3C//DTD SVG 1.1//EN" "http://www.w3.org/Graphics/SVG/1.1/DTD/svg11.dtd">
<svg version="1.1" xmlns="http://www.w3.org/2000/svg" xmlns:xlink="http://www.w3.org/1999/xlink" x="0px" y="0px" width="25px"
	 height="25px" viewBox="0 0 25 25" enable-background="new 0 0 25 25" xml:space="preserve">
<g id="Layer_2" display="none">
	<rect x="-73.749" y="-21.417" display="inline" fill="#FFFFFF" width="125.5" height="93.499"/>
</g>
<g id="Layer_1">
	<g id="home" display="none">
		<polyline display="inline" fill="#FFFFFF" stroke="#888888" stroke-linecap="round" stroke-miterlimit="10" points="24.652,9.095 
			12.563,0.469 0.472,9.095 0.472,24.627 24.652,24.627 24.652,15.078 		"/>
		<polyline display="inline" fill="#FFFFFF" stroke="#888888" stroke-linecap="round" stroke-miterlimit="10" points="9.073,20.557 
			9.073,16.426 16.053,16.426 16.053,24.119 		"/>
	</g>
	<g id="products" display="none">
		<g display="inline">
			<polyline fill="none" stroke="#888888" stroke-linecap="round" stroke-miterlimit="10" points="12.163,21.153 15.057,24.046 
				23.986,15.117 9.254,0.385 9.254,0.385 0.324,0.385 0.325,9.314 8.531,17.521 			"/>
			<g>
				<circle fill="none" stroke="#888888" stroke-miterlimit="10" cx="4.646" cy="4.708" r="1.264"/>
			</g>
		</g>
	</g>
	<g id="stokists" display="none">
		<path display="inline" fill="none" stroke="#898989" stroke-linecap="round" stroke-miterlimit="10" d="M15.932,22.63
			c1.738-0.704,3.336-1.663,4.597-2.964c4.298-4.441,4.303-19.195,4.303-19.195S12.402,1.646,6.562,6.276
			c-6.722,5.329-5.877,17.059-5.877,18.021c0,0,3.874,0.45,8.415-0.052"/>
		
			<line display="inline" fill="none" stroke="#898989" stroke-linecap="round" stroke-miterlimit="10" x1="1.291" y1="23.763" x2="19.17" y2="6.134"/>
		
			<line display="inline" fill="none" stroke="#898989" stroke-linecap="round" stroke-miterlimit="10" x1="5.494" y1="19.063" x2="6.989" y2="11.547"/>
		
			<line display="inline" fill="none" stroke="#898989" stroke-linecap="round" stroke-miterlimit="10" x1="13.008" y1="12.758" x2="16.676" y2="12.477"/>
	</g>
	<g id="about" display="none">
		<path display="inline" fill="none" stroke="#888888" stroke-linecap="round" stroke-miterlimit="10" d="M19.724,16.771
			c0,0,4.349-4.295,4.345-8.348c0.008-0.188,0-0.383,0-0.576c0-3.531-3.006-6.394-6.31-6.394c-2.389,0-4.446,1.492-5.408,3.651
			c-1.039-2.158-3.238-3.651-5.624-3.651c-3.306,0-5.985,2.862-5.985,6.394c0,0-0.446,4.247,3.931,8.445
			c4.004,3.842,7.771,7.827,7.771,7.827l2.85-2.878"/>
	</g>
	<g id="contact" display="none">
		<polyline display="inline" fill="none" stroke="#888888" stroke-linecap="round" stroke-miterlimit="10" points="11.205,8.15 
			24.267,1.322 22.854,19.854 16.605,18.133 12.228,22.797 8.812,15.859 0.436,13.835 0.436,13.835 0.432,13.783 6.951,10.375 		"/>
		<polyline display="inline" fill="none" stroke="#888888" stroke-linecap="round" stroke-miterlimit="10" points="23.79,2.021 
			13.765,15.903 22.854,19.854 		"/>
		
			<line display="inline" fill="none" stroke="#888888" stroke-linecap="round" stroke-miterlimit="10" x1="9.052" y1="15.793" x2="23.32" y2="2.615"/>
		
			<line display="inline" fill="none" stroke="#888888" stroke-linecap="round" stroke-miterlimit="10" x1="13.01" y1="16.94" x2="12.406" y2="22.638"/>
	</g>
	<g id="language" display="none">
		<path display="inline" fill="none" stroke="#888888" stroke-linecap="round" stroke-miterlimit="10" d="M20.438,21.145
			c2.332-2.146,3.795-5.224,3.795-8.646c0-6.479-5.252-11.732-11.732-11.732c-6.479,0-11.732,5.253-11.732,11.732
			c0,2.384,0.712,4.6,1.932,6.448L1.16,23.926l5.009-1.55c1.828,1.174,3.999,1.857,6.331,1.857c1.031,0,2.031-0.133,2.984-0.383"/>
		
			<line display="inline" fill="none" stroke="#888888" stroke-linecap="round" stroke-miterlimit="10" x1="12.358" y1="2.916" x2="12.358" y2="22.187"/>
		
			<line display="inline" fill="none" stroke="#888888" stroke-linecap="round" stroke-miterlimit="10" x1="21.994" y1="12.551" x2="2.724" y2="12.551"/>
		
			<line display="inline" fill="none" stroke="#888888" stroke-linecap="round" stroke-miterlimit="10" x1="4.848" y1="7.422" x2="20.145" y2="7.422"/>
		
			<line display="inline" fill="none" stroke="#888888" stroke-linecap="round" stroke-miterlimit="10" x1="4.848" y1="17.269" x2="20.145" y2="17.269"/>
		<path display="inline" fill="none" stroke="#888888" stroke-linecap="round" stroke-miterlimit="10" d="M14.797,3.827
			c0,0,10.41,7.385,0.311,17.759"/>
		<path display="inline" fill="none" stroke="#888888" stroke-linecap="round" stroke-miterlimit="10" d="M9.88,3.827
			c0,0-10.408,7.385-0.31,17.759"/>
	</g>
	<g id="sign_in" display="none">
		<path display="inline" fill="none" stroke="#888888" stroke-linecap="round" stroke-miterlimit="10" d="M2.383,6.75
			c1.993-3.461,5.729-5.792,10.01-5.792c6.372,0,11.539,5.167,11.539,11.541c0,6.373-5.167,11.541-11.539,11.541
			c-4.596,0-8.563-2.687-10.421-6.574"/>
		
			<line display="inline" fill="none" stroke="#888888" stroke-linecap="round" stroke-miterlimit="10" x1="1.067" y1="12.012" x2="10.734" y2="12.012"/>
		<polyline display="inline" fill="none" stroke="#888888" stroke-linecap="round" stroke-miterlimit="10" points="8.25,8.502 
			11.743,11.994 8.647,15.091 		"/>
	</g>
	<g id="sign_up">
		<path fill="none" stroke="#888888" stroke-linecap="round" stroke-miterlimit="10" d="M17.904,22.699
			c-1.611,0.855-3.453,1.342-5.404,1.342c-6.374,0-11.541-5.167-11.541-11.541S6.126,0.959,12.499,0.959
			c6.374,0,11.542,5.167,11.542,11.541c0,2.745-0.961,5.267-2.561,7.249"/>
		<g>
			
				<line fill="none" stroke="#888888" stroke-linecap="round" stroke-miterlimit="10" x1="7.592" y1="12.554" x2="17.406" y2="12.554"/>
			<line fill="none" stroke="#888888" stroke-linecap="round" stroke-miterlimit="10" x1="12.5" y1="17.462" x2="12.5" y2="7.646"/>
		</g>
	</g>
	<g id="Layer_10" display="none">
		
			<circle display="inline" fill="none" stroke="#888888" stroke-linecap="round" stroke-miterlimit="10" cx="19.489" cy="23.316" r="1.496"/>
		
			<circle display="inline" fill="none" stroke="#888888" stroke-linecap="round" stroke-miterlimit="10" cx="9.445" cy="23.316" r="1.496"/>
		<path display="inline" fill="none" stroke="#888888" stroke-linecap="round" stroke-miterlimit="10" d="M0.222,5.099h1.282
			c0,0,0.357-0.024,0.56,0.107c0.203,0.131,0.303,0.408,0.303,0.408L6.74,17.923h14.746l3.256-8.443c0,0,0.304-0.809,0.16-0.978
			c-0.141-0.169-0.545-0.169-0.545-0.169H12.569"/>
		<path display="inline" fill="none" stroke="#888888" stroke-linecap="round" stroke-miterlimit="10" d="M21.486,20.629H7.239
			c0,0-1.923,0.105-1.923-1.425c0-1.211,1.531-1.281,1.531-1.281"/>
	</g>
</g>
</svg>
