<?xml version="1.0" encoding="utf-8"?>
<!-- Generator: Adobe Illustrator 16.0.0, SVG Export Plug-In . SVG Version: 6.00 Build 0)  -->
<!DOCTYPE svg PUBLIC "-//W3C//DTD SVG 1.1//EN" "http://www.w3.org/Graphics/SVG/1.1/DTD/svg11.dtd">
<svg version="1.1" id="Layer_1" xmlns="http://www.w3.org/2000/svg" xmlns:xlink="http://www.w3.org/1999/xlink" x="0px" y="0px"
	 width="32.163px" height="30px" viewBox="0 0 32.163 30" enable-background="new 0 0 32.163 30" xml:space="preserve">
<g id="search">
	<path fill="none" stroke="#FFFFFF" stroke-width="2.3" stroke-linecap="round" stroke-miterlimit="10" d="M28.929,25.68
		l-6.002-6.002c1.5-1.921,2.397-4.337,2.397-6.963c0-6.258-5.076-11.332-11.333-11.332c-6.26,0-11.333,5.074-11.333,11.332
		c0,6.259,5.073,11.332,11.333,11.332c2.444,0,4.707-0.775,6.557-2.093l6.056,6.053c0.738,0.737,1.861,0.82,2.503,0.177
		C29.75,27.541,29.67,26.42,28.929,25.68z"/>
	<path fill="none" stroke="#FFFFFF" stroke-width="2.3" stroke-linecap="round" stroke-miterlimit="10" d="M14.069,5.33
		c4.098,0,7.414,3.32,7.414,7.416c0,4.095-3.316,7.418-7.414,7.418c-4.094,0-7.414-3.323-7.414-7.418
		C6.655,8.65,9.975,5.33,14.069,5.33z"/>
</g>
</svg>
