<?xml version="1.0" encoding="utf-8"?>
<!-- Generator: Adobe Illustrator 16.0.0, SVG Export Plug-In . SVG Version: 6.00 Build 0)  -->
<!DOCTYPE svg PUBLIC "-//W3C//DTD SVG 1.1//EN" "http://www.w3.org/Graphics/SVG/1.1/DTD/svg11.dtd">
<svg version="1.1" xmlns="http://www.w3.org/2000/svg" xmlns:xlink="http://www.w3.org/1999/xlink" x="0px" y="0px" width="25px"
	 height="25px" viewBox="0 0 25 25" enable-background="new 0 0 25 25" xml:space="preserve">
<g id="Layer_3">
	<rect x="0.558" y="0.558" fill="none" stroke="#000000" stroke-miterlimit="10" width="23.885" height="23.885"/>
</g>
<g id="facebook">
	<rect x="9.198" y="3.984" fill="none" width="19.005" height="21.016"/>
	<text transform="matrix(1 0 0 1 9.1982 24.5732)" display="none" font-family="'MyriadPro-Bold'" font-size="29">f</text>
	<path fill="none" stroke="#000000" stroke-miterlimit="10" d="M15.832,20.203v-6.646h2.832v-3.12h-2.822
		c-0.024-1.216,0.113-3.261,1.962-3.299C19,7.115,19.313,7.172,19.313,7.172l0.176-3.224c0,0-3.227-0.789-5.198,0.43
		c-1.846,1.141-2.749,2.534-2.857,6.06H9.628v3.12h1.9v10.427"/>
</g>
<g id="g_x2B_" display="none">
	<rect x="8.313" y="6.625" display="inline" fill="none" width="8.438" height="10.063"/>
	<text transform="matrix(1 0 0 1 8.3125 16.5645)" display="inline" font-family="'MyriadPro-Bold'" font-size="14">+</text>
</g>
<g id="insta" display="none">
	
		<line display="inline" fill="none" stroke="#000000" stroke-linecap="round" stroke-miterlimit="10" x1="17.209" y1="9.708" x2="23.917" y2="9.708"/>
	
		<line display="inline" fill="none" stroke="#000000" stroke-linecap="round" stroke-miterlimit="10" x1="1.031" y1="10" x2="7.042" y2="10"/>
	<path display="inline" fill="none" stroke="#000000" stroke-linecap="round" stroke-miterlimit="10" d="M6.711,11.396
		c0.816-2.324,3.03-3.99,5.633-3.99c3.296,0,5.969,2.672,5.969,5.969c0,3.296-2.673,5.969-5.969,5.969
		c-2.421,0-4.505-1.441-5.441-3.513"/>
	<path display="inline" fill="none" stroke="#000000" stroke-linecap="round" stroke-miterlimit="10" d="M14.141,17.055
		c-0.542,0.266-1.152,0.414-1.797,0.414c-2.261,0-4.094-1.833-4.094-4.094s1.833-4.094,4.094-4.094s4.094,1.833,4.094,4.094
		c0,0.647-0.15,1.26-0.418,1.804"/>
	<rect x="19.25" y="2.875" display="inline" fill="none" stroke="#000000" stroke-miterlimit="10" width="2.5" height="2.5"/>
</g>
<g id="Layer_5" display="none">
	<g display="inline">
		<path fill="none" stroke="#000000" stroke-linecap="round" stroke-miterlimit="10" d="M8.468,8.647
			c0.439-1.729,1.707-2.503,3.785-2.503c4.502,0,4.756,3.395,4.109,5.727c-0.82,2.963-5.171,3.567-5.171-1.085
			c0-1.397,0.854-0.981,0.854,0.046c0,0.797-2.17,6.765-2.54,8.023"/>
		<path fill="none" stroke="#000000" stroke-linecap="round" stroke-miterlimit="10" d="M9.29,12.75
			c-0.452-0.477-0.79-1.253-0.916-2.126"/>
	</g>
</g>
</svg>
